<?xml version="1.0" encoding="utf-8"?>
<!-- Generator: Adobe Illustrator 22.0.0, SVG Export Plug-In . SVG Version: 6.00 Build 0)  -->
<svg version="1.1" id="Layer_1" xmlns="http://www.w3.org/2000/svg" xmlns:xlink="http://www.w3.org/1999/xlink" x="0px" y="0px"
	 viewBox="0 0 60 60" style="enable-background:new 0 0 60 60;" xml:space="preserve">
<style type="text/css">
	.st0{fill:#FFFFFF;}
</style>
<g>
	<path class="st0" d="M46.2,20.8c0-0.6-0.2-1.2-0.7-1.6c-0.5-0.5-1-0.7-1.6-0.7c-0.6,0-1.2,0.2-1.6,0.7l-5.3,5.3V13.8
		c0-0.6-0.2-1.2-0.7-1.6c-0.5-0.5-1-0.7-1.6-0.7c-0.6,0-1.2,0.2-1.6,0.7s-0.7,1-0.7,1.6v10.6L27,19.2c-0.5-0.5-1-0.7-1.6-0.7
		s-1.2,0.2-1.6,0.7c-0.5,0.5-0.7,1-0.7,1.6s0.2,1.2,0.7,1.6l9.2,9.2c0.5,0.5,1,0.7,1.6,0.7c0.6,0,1.2-0.2,1.6-0.7l9.2-9.2
		C45.9,21.9,46.2,21.4,46.2,20.8z M23.1,50.8c0,1.3-0.5,2.4-1.4,3.3c-0.9,0.9-2,1.4-3.3,1.4c-1.3,0-2.4-0.5-3.3-1.4
		c-0.9-0.9-1.4-2-1.4-3.3c0-1.3,0.5-2.4,1.4-3.3c0.9-0.9,2-1.4,3.3-1.4c1.3,0,2.4,0.5,3.3,1.4C22.6,48.4,23.1,49.5,23.1,50.8z
		 M55.4,50.8c0,1.3-0.5,2.4-1.4,3.3c-0.9,0.9-2,1.4-3.3,1.4c-1.3,0-2.4-0.5-3.3-1.4c-0.9-0.9-1.4-2-1.4-3.3c0-1.3,0.5-2.4,1.4-3.3
		c0.9-0.9,2-1.4,3.3-1.4c1.3,0,2.4,0.5,3.3,1.4C54.9,48.4,55.4,49.5,55.4,50.8z M60,11.5V30c0,0.6-0.2,1.1-0.6,1.5
		c-0.4,0.4-0.9,0.7-1.5,0.8l-37.6,4.4c0,0.2,0.1,0.4,0.2,0.8s0.2,0.7,0.2,1c0.1,0.3,0.1,0.6,0.1,0.8c0,0.4-0.3,1.2-0.9,2.3h33.2
		c0.6,0,1.2,0.2,1.6,0.7c0.5,0.5,0.7,1,0.7,1.6c0,0.6-0.2,1.2-0.7,1.6s-1,0.7-1.6,0.7H16.2c-0.6,0-1.2-0.2-1.6-0.7s-0.7-1-0.7-1.6
		c0-0.3,0.1-0.8,0.4-1.4c0.3-0.6,0.6-1.3,1.1-2.1S16,39,16,38.9L9.7,9.2H2.3C1.7,9.2,1.1,9,0.7,8.5S0,7.5,0,6.9s0.2-1.2,0.7-1.6
		s1-0.7,1.6-0.7h9.2c0.4,0,0.7,0.1,1,0.2c0.3,0.2,0.5,0.3,0.7,0.6c0.2,0.2,0.3,0.5,0.5,0.9C13.9,6.7,14,7,14,7.2
		c0,0.3,0.1,0.6,0.2,1.1c0.1,0.4,0.1,0.8,0.2,0.9h43.3c0.6,0,1.2,0.2,1.6,0.7S60,10.9,60,11.5L60,11.5z"/>
</g>
</svg>
