<?xml version="1.0" encoding="utf-8"?>
<!-- Generator: Adobe Illustrator 16.0.0, SVG Export Plug-In . SVG Version: 6.00 Build 0)  -->
<!DOCTYPE svg PUBLIC "-//W3C//DTD SVG 1.1//EN" "http://www.w3.org/Graphics/SVG/1.1/DTD/svg11.dtd">
<svg version="1.1" id="Layer_1" xmlns="http://www.w3.org/2000/svg" xmlns:xlink="http://www.w3.org/1999/xlink" x="0px" y="0px"
	 width="20.8px" height="24.7px" viewBox="0 0 20.8 24.7" enable-background="new 0 0 20.8 24.7" xml:space="preserve">
<title  id="simpleicons-facebook-icon">Facebook icon</title>
<path id="facebook" fill="#448C65" d="M19.673,1.95H1.126C0.52,1.95,0,2.47,0,3.077v18.547c0,0.606,0.52,1.127,1.126,1.127h9.967
	V14.69H8.407v-3.12h2.687V9.23c0-2.687,1.646-4.16,4.073-4.16c1.126,0,2.167,0.086,2.427,0.086v2.86h-1.646
	c-1.301,0-1.561,0.607-1.561,1.56v1.994h3.12l-0.433,3.12h-2.688v8.061h5.287c0.606,0,1.127-0.521,1.127-1.127V3.077
	C20.8,2.47,20.28,1.95,19.673,1.95"/>
<path id="insta" display="none" fill="#999999" d="M10.4,1.864c-2.773,0-3.12,0.086-4.247,0.086C5.027,2.037,4.247,2.21,3.64,2.47
	c-0.693,0.26-1.3,0.606-1.907,1.213C1.126,4.29,0.867,4.81,0.606,5.503C0.347,6.11,0.173,6.89,0.086,8.017C0,9.144,0,9.49,0,12.263
	c0,2.773,0,3.207,0.086,4.247c0.087,1.127,0.26,1.82,0.52,2.514c0.26,0.779,0.607,1.387,1.127,1.906
	c0.606,0.606,1.126,0.953,1.82,1.213s1.387,0.434,2.513,0.521c1.127,0.087,1.474,0.087,4.247,0.087c2.773,0,3.207,0,4.247-0.087
	c1.127-0.087,1.82-0.261,2.514-0.521s1.299-0.606,1.819-1.213c0.606-0.607,0.954-1.127,1.214-1.82s0.433-1.387,0.52-2.514
	c0.087-1.126,0.087-1.473,0.087-4.246S20.8,9.144,20.8,8.017c-0.087-1.126-0.261-1.82-0.521-2.513s-0.606-1.3-1.214-1.82
	C18.46,3.077,17.94,2.73,17.247,2.47s-1.387-0.434-2.513-0.52C13.607,1.864,13.259,1.864,10.4,1.864z M10.4,3.77
	c2.773,0,3.12,0,4.246,0.087c1.041,0.086,1.561,0.173,1.907,0.347c0.521,0.173,0.866,0.433,1.214,0.78
	c0.346,0.347,0.605,0.693,0.779,1.213c0.174,0.347,0.347,0.953,0.347,1.907c0.087,1.126,0.087,1.387,0.087,4.16
	c0,2.773,0,3.12-0.087,4.247c-0.087,1.04-0.26,1.56-0.347,1.906c-0.174,0.52-0.434,0.867-0.779,1.213
	c-0.348,0.348-0.693,0.607-1.214,0.781c-0.347,0.173-0.953,0.346-1.907,0.346c-1.126,0.087-1.387,0.087-4.246,0.087
	c-2.773,0-3.12,0-4.247-0.087c-1.04-0.086-1.56-0.26-1.907-0.346c-0.52-0.174-0.867-0.434-1.213-0.781
	c-0.347-0.346-0.606-0.693-0.78-1.213C2.08,18.07,1.907,17.463,1.907,16.51c0-1.127-0.087-1.387-0.087-4.16s0-3.12,0.087-4.247
	c0.086-1.04,0.26-1.56,0.347-1.907c0.173-0.52,0.433-0.867,0.78-1.213C3.38,4.55,3.727,4.377,4.247,4.117
	C4.593,4.03,5.2,3.857,6.153,3.77C7.28,3.77,7.626,3.77,10.4,3.77L10.4,3.77z M10.4,6.977c-2.947,0-5.373,2.426-5.373,5.373
	c0,2.947,2.426,5.373,5.373,5.373c2.947,0,5.373-2.426,5.373-5.373C15.773,9.317,13.347,6.977,10.4,6.977z M10.4,15.73
	c-1.907,0-3.467-1.56-3.467-3.467c0-1.906,1.56-3.466,3.467-3.466c1.906,0,3.467,1.56,3.467,3.466
	C13.867,14.17,12.306,15.73,10.4,15.73z M17.247,6.717c0,0.693-0.521,1.213-1.214,1.213c-0.779,0.086-1.299-0.52-1.299-1.213
	s0.52-1.213,1.213-1.213S17.247,6.023,17.247,6.717z"/>
<path id="twitter" display="none" fill="#999999" d="M20.8,5.244c0-1.82-1.474-3.293-3.294-3.293H3.38C1.56,1.95,0,3.423,0,5.244
	V19.37c0,1.907,1.56,3.381,3.38,3.381h14.126c1.82,0,3.294-1.474,3.294-3.381V5.244z M16.466,12.523
	c-0.26,1.126-0.953,2.167-1.82,2.947c-1.732,1.56-4.073,2.253-6.326,2.08c-2.167-0.174-4.333-1.214-5.633-2.946
	c0.087,0.086,0.173,0.173,0.347,0.26c0.954,0.693,2.34,0.953,3.467,0.606c0.693-0.173,1.387-0.606,1.907-1.127
	c-0.347,0-0.693,0-0.954-0.26c-0.173-0.173-0.173-0.347-0.086-0.606c0.086-0.26,0.347-0.348,0.606-0.521
	c-0.78,0.087-1.56-0.26-1.907-0.953c0.26-0.347,0.693-0.433,1.04-0.433c-0.433-0.087-0.867-0.26-1.213-0.607
	c-0.26-0.26-0.433-0.606-0.52-0.953C5.72,9.923,5.98,9.923,6.327,9.923c-0.693-0.347-1.387-1.04-1.3-1.907
	c1.386,0.52,2.687,1.04,3.986,1.733c0.434,0.26,0.867,0.607,1.213,0.954c0.347-0.954,0.78-1.907,1.3-2.687
	c0.346-0.433,0.693-0.867,1.127-1.126c0,0.173-0.088,0.26-0.174,0.347c0.347-0.26,0.693-0.433,1.127-0.52
	c-0.087,0.26-0.26,0.347-0.521,0.52c0.347-0.087,0.606-0.26,0.954-0.26c0.086,0,0.173,0,0.26,0.086
	c0.086,0.086-0.087,0.26-0.174,0.26C13.78,7.497,13.347,7.497,13,7.67c0.78-0.086,1.561,0.26,2.08,0.693
	c0.693,0.607,1.127,1.387,1.301,2.253c0.605,0.173,1.299,0.087,1.819-0.173c-0.26,0.693-1.04,0.954-1.646,1.04
	c0.521,0.173,1.126,0.26,1.733,0.173C17.853,12.35,17.16,12.523,16.466,12.523z"/>
</svg>
