<?xml version="1.0" encoding="utf-8"?>
<!-- Generator: Adobe Illustrator 16.0.0, SVG Export Plug-In . SVG Version: 6.00 Build 0)  -->
<!DOCTYPE svg PUBLIC "-//W3C//DTD SVG 1.1//EN" "http://www.w3.org/Graphics/SVG/1.1/DTD/svg11.dtd">
<svg version="1.1" id="Layer_1" xmlns="http://www.w3.org/2000/svg" xmlns:xlink="http://www.w3.org/1999/xlink" x="0px" y="0px"
	 width="20.8px" height="24.7px" viewBox="0 0 20.8 24.7" enable-background="new 0 0 20.8 24.7" xml:space="preserve">
<title  id="simpleicons-facebook-icon">Facebook icon</title>
<path id="facebook" display="none" d="M19.673,1.95H1.126C0.52,1.95,0,2.47,0,3.077v18.547c0,0.606,0.52,1.127,1.126,1.127h9.967
	V14.69H8.407v-3.12h2.687V9.23c0-2.687,1.646-4.16,4.073-4.16c1.126,0,2.167,0.086,2.427,0.086v2.86h-1.646
	c-1.301,0-1.561,0.607-1.561,1.56v1.994h3.12l-0.433,3.12h-2.688v8.061h5.287c0.606,0,1.127-0.521,1.127-1.127V3.077
	C20.8,2.47,20.28,1.95,19.673,1.95"/>
<path id="insta" fill="#448C65" d="M10.4,2.124c-2.687,0-3.033,0.087-4.16,0.087c-1.126,0-1.906,0.173-2.426,0.433
	c-0.693,0.26-1.3,0.606-1.907,1.213C1.3,4.463,1.04,4.983,0.78,5.677c-0.26,0.52-0.433,1.3-0.52,2.427
	c-0.087,1.126-0.087,1.473-0.087,4.16s0,3.12,0.087,4.16c0.086,1.127,0.26,1.819,0.52,2.427c0.26,0.779,0.607,1.387,1.127,1.906
	c0.606,0.607,1.126,0.953,1.82,1.214c0.693,0.26,1.387,0.433,2.427,0.52c1.126,0.087,1.473,0.087,4.16,0.087s3.12,0,4.16-0.087
	c1.127-0.087,1.819-0.26,2.427-0.52c0.693-0.261,1.3-0.606,1.82-1.214c0.606-0.606,0.953-1.127,1.213-1.82s0.434-1.386,0.52-2.426
	c0.087-1.127,0.087-1.474,0.087-4.16s0.087-3.12,0.087-4.247c-0.087-1.126-0.26-1.82-0.52-2.427c-0.26-0.693-0.607-1.3-1.214-1.82
	c-0.606-0.607-1.126-0.954-1.819-1.213c-0.693-0.26-1.387-0.433-2.428-0.52C13.607,2.037,13.173,2.124,10.4,2.124z M10.4,3.943
	c2.687,0,3.033,0,4.16,0.087c1.04,0.086,1.56,0.173,1.906,0.347c0.52,0.173,0.867,0.433,1.213,0.78
	c0.348,0.347,0.521,0.693,0.693,1.127C18.546,6.63,18.72,7.237,18.72,8.19c0.086,1.127,0.086,1.387,0.086,4.073s0,3.034-0.086,4.16
	c-0.087,1.04-0.26,1.56-0.348,1.907c-0.173,0.52-0.433,0.866-0.779,1.213S16.9,20.15,16.38,20.323
	c-0.348,0.174-0.954,0.348-1.907,0.348c-1.126,0.086-1.387,0.086-4.16,0.086c-2.687,0-3.033,0-4.16-0.086
	c-0.954-0.174-1.473-0.348-1.82-0.434c-0.52-0.174-0.867-0.434-1.213-0.78s-0.607-0.693-0.78-1.214
	c-0.173-0.346-0.347-0.953-0.347-1.906c0-1.127-0.086-1.387-0.086-4.073s0-3.033,0.086-4.16C2.167,7.15,2.34,6.63,2.427,6.284
	C2.6,5.764,2.86,5.417,3.207,5.07S3.9,4.55,4.333,4.29C4.68,4.204,5.287,4.03,6.24,3.943C7.367,3.943,7.713,3.943,10.4,3.943
	L10.4,3.943z M10.4,7.063c-2.86,0-5.287,2.34-5.287,5.287c0,2.947,2.34,5.287,5.287,5.287c2.947,0,5.287-2.34,5.287-5.287
	C15.687,9.403,13.259,7.063,10.4,7.063z M10.4,15.643c-1.907,0-3.38-1.56-3.38-3.38c0-1.82,1.473-3.38,3.38-3.38
	c1.906,0,3.38,1.56,3.38,3.38C13.78,14.083,12.306,15.643,10.4,15.643z M17.074,6.804c0,0.693-0.521,1.213-1.214,1.213
	c-0.78,0.087-1.3-0.52-1.3-1.213c0-0.693,0.52-1.213,1.213-1.213C16.553,5.677,17.074,6.197,17.074,6.804z"/>
<path id="twitter" display="none" fill="#999999" d="M20.8,5.244c0-1.82-1.474-3.293-3.294-3.293H3.38C1.56,1.95,0,3.423,0,5.244
	V19.37c0,1.907,1.56,3.381,3.38,3.381h14.126c1.82,0,3.294-1.474,3.294-3.381V5.244z M16.466,12.523
	c-0.26,1.126-0.953,2.167-1.82,2.947c-1.732,1.56-4.073,2.253-6.326,2.08c-2.167-0.174-4.333-1.214-5.633-2.946
	c0.087,0.086,0.173,0.173,0.347,0.26c0.954,0.693,2.34,0.953,3.467,0.606c0.693-0.173,1.387-0.606,1.907-1.127
	c-0.347,0-0.693,0-0.954-0.26c-0.173-0.173-0.173-0.347-0.086-0.606c0.086-0.26,0.347-0.348,0.606-0.521
	c-0.78,0.087-1.56-0.26-1.907-0.953c0.26-0.347,0.693-0.433,1.04-0.433c-0.433-0.087-0.867-0.26-1.213-0.607
	c-0.26-0.26-0.433-0.606-0.52-0.953C5.72,9.923,5.98,9.923,6.327,9.923c-0.693-0.347-1.387-1.04-1.3-1.907
	c1.386,0.52,2.687,1.04,3.986,1.733c0.434,0.26,0.867,0.607,1.213,0.954c0.347-0.954,0.78-1.907,1.3-2.687
	c0.346-0.433,0.693-0.867,1.127-1.126c0,0.173-0.088,0.26-0.174,0.347c0.347-0.26,0.693-0.433,1.127-0.52
	c-0.087,0.26-0.26,0.347-0.521,0.52c0.347-0.087,0.606-0.26,0.954-0.26c0.086,0,0.173,0,0.26,0.086
	c0.086,0.086-0.087,0.26-0.174,0.26C13.78,7.497,13.347,7.497,13,7.67c0.78-0.086,1.561,0.26,2.08,0.693
	c0.693,0.607,1.127,1.387,1.301,2.253c0.605,0.173,1.299,0.087,1.819-0.173c-0.26,0.693-1.04,0.954-1.646,1.04
	c0.521,0.173,1.126,0.26,1.733,0.173C17.853,12.35,17.16,12.523,16.466,12.523z"/>
</svg>
