<?xml version="1.0" encoding="utf-8"?>
<!-- Generator: Adobe Illustrator 16.0.0, SVG Export Plug-In . SVG Version: 6.00 Build 0)  -->
<!DOCTYPE svg PUBLIC "-//W3C//DTD SVG 1.1//EN" "http://www.w3.org/Graphics/SVG/1.1/DTD/svg11.dtd">
<svg version="1.1" id="Layer_1" xmlns="http://www.w3.org/2000/svg" xmlns:xlink="http://www.w3.org/1999/xlink" x="0px" y="0px"
	 width="20.8px" height="24.7px" viewBox="0 0 20.8 24.7" enable-background="new 0 0 20.8 24.7" xml:space="preserve">
<title  id="simpleicons-linkedin-icon">LinkedIn icon</title>
<path fill="#448C65" d="M17.679,19.717H14.56v-4.854c0-1.127,0-2.601-1.646-2.601s-1.82,1.214-1.82,2.514v4.94H8.146V9.75h2.947
	v1.387l0,0c0.434-0.78,1.387-1.646,2.947-1.646c3.119,0,3.727,2.08,3.727,4.766L17.679,19.717L17.679,19.717z M4.593,8.363
	c-0.953,0-1.82-0.78-1.82-1.82c0-0.953,0.78-1.82,1.82-1.82c0.953,0,1.82,0.78,1.82,1.82S5.633,8.363,4.593,8.363z M6.153,19.717
	H3.12V9.75h3.12L6.153,19.717L6.153,19.717z M19.24,1.95H1.56C0.693,1.95,0,2.644,0,3.423V21.19c0,0.867,0.693,1.474,1.56,1.474
	h17.767c0.866,0,1.56-0.693,1.56-1.474V3.423C20.8,2.644,20.107,1.95,19.24,1.95L19.24,1.95z"/>
</svg>
