<?xml version="1.0" encoding="utf-8"?>
<!-- Generator: Adobe Illustrator 22.0.0, SVG Export Plug-In . SVG Version: 6.00 Build 0)  -->
<svg version="1.1" id="Layer_1" xmlns="http://www.w3.org/2000/svg" xmlns:xlink="http://www.w3.org/1999/xlink" x="0px" y="0px"
	 viewBox="0 0 30 30" style="enable-background:new 0 0 30 30;" xml:space="preserve">
<style type="text/css">
	.st0{display:none;}
	.st1{display:inline;fill:#FFFFFF;}
	.st2{display:none;fill:#990000;}
	.st3{fill:#FFFFFF;}
</style>
<g class="st0">
	<path class="st1" d="M29.2,6.3l-3.6-3.2L22,0l-3.6,3.2l-3.6,3.2h4C17.3,14.6,9.7,21,1,19.6c-0.4-0.1-0.5,0.5-0.2,0.6
		c10.8,3.8,23.2-2.4,25-13.9L29.2,6.3L29.2,6.3z"/>
	<path class="st1" d="M21.2,17c-1.1,1-2.4,1.9-3.7,2.7v10.2h3.7V17z"/>
	<path class="st1" d="M11.8,29.9h3.7v-9.3c-1.2,0.5-2.4,0.9-3.7,1.2V29.9z"/>
	<path class="st1" d="M23,29.9h3.7V7.3h-0.1c-0.6,2.9-1.9,5.5-3.6,7.7L23,29.9L23,29.9z"/>
	<path class="st1" d="M4.4,22c-1.3-0.2-2.5-0.5-3.7-0.9v8.8h3.7V22z"/>
	<path class="st1" d="M6.3,29.9H10v-7.8c-0.8,0.1-1.7,0.2-2.6,0.2c-0.4,0-0.8,0-1.1,0V29.9z"/>
</g>
<rect x="0" class="st2" width="30" height="30"/>
<g id="leaf" class="st0">
	<path class="st1" d="M29.6,3.9C26.4,1.5,21.4,0,16.3,0C9.9,0,4.8,2.2,2.1,6.1C0.8,7.9,0.1,10,0,12.4c-0.1,2.2,0.3,4.5,1.1,7.1
		C3.9,11.2,11.7,4.7,20.6,4.7c0,0-8.4,2.2-13.6,9c0,0-0.1,0.1-0.2,0.3c-1.1,1.4-2,3-2.7,4.8C2.9,21.6,1.8,25.4,1.8,30h3.8
		c0,0-0.6-3.6,0.4-7.7c1.6,0.2,3.1,0.3,4.4,0.3c3.4,0,5.9-0.7,7.7-2.3c1.6-1.4,2.5-3.4,3.5-5.4c1.5-3.1,3.1-6.7,7.9-9.4
		C29.8,5.3,30,5,30,4.7C30,4.4,29.9,4.1,29.6,3.9L29.6,3.9z"/>
</g>
<g class="st0">
	<path class="st1" d="M27.8,15c0-1.3-0.2-2.6-0.6-3.8L21.5,26C25.2,23.8,27.8,19.7,27.8,15L27.8,15z"/>
	<path class="st1" d="M11,27.2c1.3,0.4,2.6,0.7,4,0.7c1.5,0,2.9-0.3,4.2-0.7L15.3,17L11,27.2L11,27.2z"/>
	<path class="st1" d="M2.8,11.4c-0.3,1.1-0.5,2.4-0.5,3.6c0,4.8,2.6,8.9,6.5,11.1L2.8,11.4L2.8,11.4L2.8,11.4z"/>
	<path class="st1" d="M9.3,10.6l-0.5,0c-1.2,0-1.1,1.2-1.1,1.2l4.2,10.6l2.9-6.8l-1.6-4.1c-0.6-1.1-2.2-1.1-2.2-1.1V10h8.9l0,0.6
		l-0.9,0.1c-1.2,0-0.9,1.1-0.9,1.1l3.9,10.3l1.1-2.9c2-4.5,0.8-7.8,0.8-7.8c-2-4.1,0.5-4.6,0.5-4.6c0.2,0,0.3,0,0.5,0
		C22.4,4,18.9,2.3,15,2.3C9.7,2.3,5.2,5.5,3.3,10l6-0.1L9.3,10.6L9.3,10.6z"/>
	<path class="st1" d="M29.3,15c0,7.9-6.4,14.3-14.3,14.3C7.1,29.4,0.7,22.9,0.7,15C0.7,7.1,7.1,0.7,15,0.7
		C22.9,0.7,29.3,7.1,29.3,15z M15,0C6.7,0,0,6.7,0,15s6.7,15,15,15c8.3,0,15-6.7,15-15C30,6.7,23.3,0,15,0z"/>
</g>
<g id="desktop">
	<path class="st3" d="M15.7,22.9c-0.4-0.3-0.4-0.7-0.4-0.7l-0.1-0.9h-4.5l-0.1,0.9c0,0,0,0.4-0.4,0.7c-0.4,0.3-0.7,0.5-0.4,0.6
		c0.3,0,3,0,3.2,0c0.2,0,2.9,0,3.2,0C16.3,23.4,16,23.2,15.7,22.9z"/>
	<path class="st3" d="M5.2,15.3c0-0.4-0.3-0.8-0.8-0.8H0.8c-0.4,0-0.8,0.3-0.8,0.8v8C0,23.7,0.4,24,0.8,24h3.6
		c0.4,0,0.8-0.3,0.8-0.8L5.2,15.3L5.2,15.3z M2.2,15.4H3c0.1,0,0.1,0,0.1,0.1c0,0.1,0,0.1-0.1,0.1H2.2C2.2,15.6,2.1,15.5,2.2,15.4
		C2.1,15.4,2.2,15.4,2.2,15.4z M2.6,23.6c-0.2,0-0.4-0.2-0.4-0.4c0-0.2,0.2-0.4,0.4-0.4c0.2,0,0.4,0.2,0.4,0.4
		C2.9,23.4,2.8,23.6,2.6,23.6z M4.7,22.5H0.5v-6.4h4.2L4.7,22.5L4.7,22.5z"/>
	<path class="st3" d="M28.9,10.1h-7.8c-0.6,0-1.1,0.5-1.1,1.1v11.2c0,0.6,0.5,1.1,1.1,1.1h7.8c0.6,0,1.1-0.5,1.1-1.1V11.2
		C30,10.6,29.5,10.1,28.9,10.1z M23.5,22.9c-0.3,0-0.5-0.2-0.5-0.5c0-0.3,0.2-0.5,0.5-0.5c0.3,0,0.5,0.2,0.5,0.5
		C24,22.6,23.8,22.9,23.5,22.9z M25,22.9c-0.3,0-0.5-0.2-0.5-0.5c0-0.3,0.2-0.5,0.5-0.5c0.3,0,0.5,0.2,0.5,0.5
		C25.5,22.6,25.3,22.9,25,22.9z M26.5,22.9c-0.3,0-0.5-0.2-0.5-0.5c0-0.3,0.2-0.5,0.5-0.5c0.3,0,0.5,0.2,0.5,0.5
		C27.1,22.6,26.8,22.9,26.5,22.9z M29.3,21.3h-8.6V11.1h8.6V21.3L29.3,21.3z"/>
	<path class="st3" d="M22.5,9.2h1.3V6.9c0-0.5-0.4-0.9-0.9-0.9H2.8C2.3,6,1.9,6.4,1.9,6.9v6.7h1.3V7.3h19.2V9.2L22.5,9.2z"/>
	<path class="st3" d="M6.1,17.8v2.6h13.1v-2.6H6.1z M12.9,19.7c-0.3,0-0.6-0.3-0.6-0.6c0-0.3,0.3-0.6,0.6-0.6c0.3,0,0.6,0.3,0.6,0.6
		C13.5,19.4,13.2,19.7,12.9,19.7z"/>
</g>
</svg>
