<?xml version="1.0" encoding="utf-8"?>
<!-- Generator: Adobe Illustrator 22.0.0, SVG Export Plug-In . SVG Version: 6.00 Build 0)  -->
<svg version="1.1" id="Layer_1" xmlns="http://www.w3.org/2000/svg" xmlns:xlink="http://www.w3.org/1999/xlink" x="0px" y="0px"
	 viewBox="0 0 30 30" style="enable-background:new 0 0 30 30;" xml:space="preserve">
<style type="text/css">
	.st0{fill:#FFFFFF;}
</style>
<g>
	<path class="st0" d="M29.2,6.3l-3.6-3.2L22,0l-3.6,3.2l-3.6,3.2h4C17.3,14.6,9.7,21,1,19.6c-0.4-0.1-0.5,0.5-0.2,0.6
		c10.8,3.8,23.2-2.4,25-13.9L29.2,6.3L29.2,6.3z"/>
	<path class="st0" d="M21.2,17c-1.1,1-2.4,1.9-3.7,2.7v10.2h3.7V17z"/>
	<path class="st0" d="M11.8,29.9h3.7v-9.3c-1.2,0.5-2.4,0.9-3.7,1.2V29.9z"/>
	<path class="st0" d="M23,29.9h3.7V7.3h-0.1c-0.6,2.9-1.9,5.5-3.6,7.7L23,29.9L23,29.9z"/>
	<path class="st0" d="M4.4,22c-1.3-0.2-2.5-0.5-3.7-0.9v8.8h3.7V22z"/>
	<path class="st0" d="M6.3,29.9H10v-7.8c-0.8,0.1-1.7,0.2-2.6,0.2c-0.4,0-0.8,0-1.1,0V29.9z"/>
</g>
</svg>
