<?xml version="1.0" encoding="utf-8"?>
<!-- Generator: Adobe Illustrator 16.0.0, SVG Export Plug-In . SVG Version: 6.00 Build 0)  -->
<!DOCTYPE svg PUBLIC "-//W3C//DTD SVG 1.1//EN" "http://www.w3.org/Graphics/SVG/1.1/DTD/svg11.dtd">
<svg version="1.1" id="Layer_1" xmlns="http://www.w3.org/2000/svg" xmlns:xlink="http://www.w3.org/1999/xlink" x="0px" y="0px"
	 width="20.8px" height="24.7px" viewBox="0 0 20.8 24.7" enable-background="new 0 0 20.8 24.7" xml:space="preserve">
<g>
	<path fill="#448C65" d="M0.768,12.479c-0.772,0.406-0.741,0.998,0.068,1.318l2.398,0.949c0.809,0.32,2.036,0.146,2.723-0.392
		L16.37,6.144c0.685-0.539,0.757-0.46,0.162,0.177l-8.23,8.811c-0.597,0.635-0.42,1.414,0.391,1.729l0.281,0.109
		c0.813,0.314,2.138,0.843,2.945,1.172l2.66,1.084c0.808,0.326,1.468,0.598,1.471,0.604c0,0.005,0.004,0.021,0.009,0.021
		c0.004,0.002,0.195-0.686,0.422-1.526l4.052-14.899c0.229-0.84-0.214-1.198-0.986-0.792L0.768,12.479z"/>
	<path fill="#448C65" d="M7.349,22.23c-0.048,0.142,1.639-2.444,1.639-2.444c0.478-0.728,0.208-1.598-0.599-1.926l-1.841-0.755
		c-0.805-0.331-1.192,0.056-0.859,0.863C5.689,17.97,7.396,22.084,7.349,22.23z"/>
	<path fill="#448C65" d="M0.768,12.479c-0.772,0.406-0.741,0.998,0.068,1.318l2.398,0.949c0.809,0.32,2.036,0.146,2.723-0.392
		L16.37,6.144c0.685-0.539,0.757-0.46,0.162,0.177l-8.23,8.811c-0.597,0.635-0.42,1.414,0.391,1.729l0.281,0.109
		c0.813,0.314,2.138,0.843,2.945,1.172l2.66,1.084c0.808,0.326,1.468,0.598,1.471,0.604c0,0.005,0.004,0.021,0.009,0.021
		c0.004,0.002,0.195-0.686,0.422-1.526l4.052-14.899c0.229-0.84-0.214-1.198-0.986-0.792L0.768,12.479z"/>
	<path fill="#448C65" d="M7.349,22.23c-0.048,0.142,1.639-2.444,1.639-2.444c0.478-0.728,0.208-1.598-0.599-1.926l-1.841-0.755
		c-0.805-0.331-1.192,0.056-0.859,0.863C5.689,17.97,7.396,22.084,7.349,22.23z"/>
</g>
</svg>
