<?xml version="1.0" encoding="utf-8"?>
<!-- Generator: Adobe Illustrator 22.0.0, SVG Export Plug-In . SVG Version: 6.00 Build 0)  -->
<svg version="1.1" id="Layer_1" xmlns="http://www.w3.org/2000/svg" xmlns:xlink="http://www.w3.org/1999/xlink" x="0px" y="0px"
	 viewBox="0 0 24 24" style="enable-background:new 0 0 24 24;" xml:space="preserve">
<style type="text/css">
	.st0{display:none;}
	.st1{fill:#00B74F;}
</style>
<title  id="simpleicons-facebook-icon">Facebook icon</title>
<path id="facebook" class="st0" d="M22.7,0H1.3C0.6,0,0,0.6,0,1.3v21.4C0,23.4,0.6,24,1.3,24h11.5v-9.3H9.7v-3.6h3.1V8.4
	c0-3.1,1.9-4.8,4.7-4.8c1.3,0,2.5,0.1,2.8,0.1V7h-1.9c-1.5,0-1.8,0.7-1.8,1.8v2.3h3.6l-0.5,3.6h-3.1V24h6.1c0.7,0,1.3-0.6,1.3-1.3
	V1.3C24,0.6,23.4,0,22.7,0"/>
<path id="insta" class="st0" d="M12-0.1C8.8-0.1,8.4,0,7.1,0C5.8,0.1,4.9,0.3,4.2,0.6C3.4,0.9,2.7,1.3,2,2S1,3.3,0.7,4.1
	C0.4,4.8,0.2,5.7,0.1,7S0,8.7,0,11.9s0,3.7,0.1,4.9c0.1,1.3,0.3,2.1,0.6,2.9C1,20.6,1.4,21.3,2,21.9c0.7,0.7,1.3,1.1,2.1,1.4
	s1.6,0.5,2.9,0.6S8.7,24,11.9,24s3.7,0,4.9-0.1c1.3-0.1,2.1-0.3,2.9-0.6c0.8-0.3,1.5-0.7,2.1-1.4c0.7-0.7,1.1-1.3,1.4-2.1
	c0.3-0.8,0.5-1.6,0.6-2.9s0.1-1.7,0.1-4.9S24,8.3,24,7c-0.1-1.3-0.3-2.1-0.6-2.9C23.1,3.3,22.7,2.6,22,2c-0.7-0.7-1.3-1.1-2.1-1.4
	C19.1,0.3,18.3,0.1,17,0S15.3-0.1,12-0.1z M12,2.1c3.2,0,3.6,0,4.9,0.1c1.2,0.1,1.8,0.2,2.2,0.4c0.6,0.2,1,0.5,1.4,0.9
	s0.7,0.8,0.9,1.4c0.2,0.4,0.4,1.1,0.4,2.2c0.1,1.3,0.1,1.6,0.1,4.8s0,3.6-0.1,4.9c-0.1,1.2-0.3,1.8-0.4,2.2c-0.2,0.6-0.5,1-0.9,1.4
	s-0.8,0.7-1.4,0.9c-0.4,0.2-1.1,0.4-2.2,0.4c-1.3,0.1-1.6,0.1-4.9,0.1c-3.2,0-3.6,0-4.9-0.1c-1.2-0.1-1.8-0.3-2.2-0.4
	c-0.6-0.2-1-0.5-1.4-0.9C3.1,20,2.8,19.6,2.6,19c-0.2-0.4-0.4-1.1-0.4-2.2c0-1.3-0.1-1.6-0.1-4.8s0-3.6,0.1-4.9
	c0.1-1.2,0.3-1.8,0.4-2.2c0.2-0.6,0.5-1,0.9-1.4c0.4-0.5,0.8-0.7,1.4-1C5.3,2.4,6,2.2,7.1,2.1C8.4,2.1,8.8,2.1,12,2.1L12,2.1z
	 M12,5.8c-3.4,0-6.2,2.8-6.2,6.2s2.8,6.2,6.2,6.2s6.2-2.8,6.2-6.2C18.2,8.5,15.4,5.8,12,5.8z M12,15.9c-2.2,0-4-1.8-4-4s1.8-4,4-4
	s4,1.8,4,4S14.2,15.9,12,15.9z M19.9,5.5c0,0.8-0.6,1.4-1.4,1.4C17.6,7,17,6.3,17,5.5s0.6-1.4,1.4-1.4C19.2,4.1,19.9,4.7,19.9,5.5z"
	/>
<path id="twitter" class="st1" d="M24,3.8C24,1.7,22.3,0,20.2,0H3.9C1.8,0,0,1.7,0,3.8v16.3C0,22.3,1.8,24,3.9,24h16.3
	c2.1,0,3.8-1.7,3.8-3.9C24,20.1,24,3.8,24,3.8z M19,12.2c-0.3,1.3-1.1,2.5-2.1,3.4c-2,1.8-4.7,2.6-7.3,2.4c-2.5-0.2-5-1.4-6.5-3.4
	c0.1,0.1,0.2,0.2,0.4,0.3c1.1,0.8,2.7,1.1,4,0.7c0.8-0.2,1.6-0.7,2.2-1.3c-0.4,0-0.8,0-1.1-0.3c-0.2-0.2-0.2-0.4-0.1-0.7
	c0.1-0.3,0.4-0.4,0.7-0.6c-0.9,0.1-1.8-0.3-2.2-1.1c0.3-0.4,0.8-0.5,1.2-0.5c-0.5-0.1-1-0.3-1.4-0.7c-0.3-0.3-0.5-0.7-0.6-1.1
	c0.4-0.1,0.7-0.1,1.1-0.1C6.5,8.8,5.7,8,5.8,7c1.6,0.6,3.1,1.2,4.6,2c0.5,0.3,1,0.7,1.4,1.1C12.2,9,12.7,7.9,13.3,7
	c0.4-0.5,0.8-1,1.3-1.3c0,0.2-0.1,0.3-0.2,0.4c0.4-0.3,0.8-0.5,1.3-0.6c-0.1,0.3-0.3,0.4-0.6,0.6c0.4-0.1,0.7-0.3,1.1-0.3
	c0.1,0,0.2,0,0.3,0.1c0.1,0.1-0.1,0.3-0.2,0.3c-0.4,0.2-0.9,0.2-1.3,0.4c0.9-0.1,1.8,0.3,2.4,0.8c0.8,0.7,1.3,1.6,1.5,2.6
	c0.7,0.2,1.5,0.1,2.1-0.2c-0.3,0.8-1.2,1.1-1.9,1.2c0.6,0.2,1.3,0.3,2,0.2C20.6,12,19.8,12.2,19,12.2z"/>
</svg>
