<?xml version="1.0" encoding="utf-8"?>
<!-- Generator: Adobe Illustrator 22.0.0, SVG Export Plug-In . SVG Version: 6.00 Build 0)  -->
<svg version="1.1" id="Layer_1" xmlns="http://www.w3.org/2000/svg" xmlns:xlink="http://www.w3.org/1999/xlink" x="0px" y="0px"
	 viewBox="0 0 60 60" style="enable-background:new 0 0 60 60;" xml:space="preserve">
<style type="text/css">
	.st0{display:none;}
	.st1{display:inline;fill:#FFFFFF;}
	.st2{fill:#FFFFFF;}
</style>
<g id="cart" class="st0">
	<path class="st1" d="M46.2,20.8c0-0.6-0.2-1.2-0.7-1.6c-0.5-0.5-1-0.7-1.6-0.7c-0.6,0-1.2,0.2-1.6,0.7l-5.3,5.3V13.8
		c0-0.6-0.2-1.2-0.7-1.6c-0.5-0.5-1-0.7-1.6-0.7c-0.6,0-1.2,0.2-1.6,0.7s-0.7,1-0.7,1.6v10.6L27,19.2c-0.5-0.5-1-0.7-1.6-0.7
		s-1.2,0.2-1.6,0.7c-0.5,0.5-0.7,1-0.7,1.6s0.2,1.2,0.7,1.6l9.2,9.2c0.5,0.5,1,0.7,1.6,0.7c0.6,0,1.2-0.2,1.6-0.7l9.2-9.2
		C45.9,21.9,46.2,21.4,46.2,20.8z M23.1,50.8c0,1.3-0.5,2.4-1.4,3.3c-0.9,0.9-2,1.4-3.3,1.4c-1.3,0-2.4-0.5-3.3-1.4
		c-0.9-0.9-1.4-2-1.4-3.3c0-1.3,0.5-2.4,1.4-3.3c0.9-0.9,2-1.4,3.3-1.4c1.3,0,2.4,0.5,3.3,1.4C22.6,48.4,23.1,49.5,23.1,50.8z
		 M55.4,50.8c0,1.3-0.5,2.4-1.4,3.3c-0.9,0.9-2,1.4-3.3,1.4c-1.3,0-2.4-0.5-3.3-1.4c-0.9-0.9-1.4-2-1.4-3.3c0-1.3,0.5-2.4,1.4-3.3
		c0.9-0.9,2-1.4,3.3-1.4c1.3,0,2.4,0.5,3.3,1.4C54.9,48.4,55.4,49.5,55.4,50.8z M60,11.5V30c0,0.6-0.2,1.1-0.6,1.5
		c-0.4,0.4-0.9,0.7-1.5,0.8l-37.6,4.4c0,0.2,0.1,0.4,0.2,0.8s0.2,0.7,0.2,1c0.1,0.3,0.1,0.6,0.1,0.8c0,0.4-0.3,1.2-0.9,2.3h33.2
		c0.6,0,1.2,0.2,1.6,0.7c0.5,0.5,0.7,1,0.7,1.6c0,0.6-0.2,1.2-0.7,1.6s-1,0.7-1.6,0.7H16.2c-0.6,0-1.2-0.2-1.6-0.7s-0.7-1-0.7-1.6
		c0-0.3,0.1-0.8,0.4-1.4c0.3-0.6,0.6-1.3,1.1-2.1S16,39,16,38.9L9.7,9.2H2.3C1.7,9.2,1.1,9,0.7,8.5S0,7.5,0,6.9s0.2-1.2,0.7-1.6
		s1-0.7,1.6-0.7h9.2c0.4,0,0.7,0.1,1,0.2c0.3,0.2,0.5,0.3,0.7,0.6c0.2,0.2,0.3,0.5,0.5,0.9C13.9,6.7,14,7,14,7.2
		c0,0.3,0.1,0.6,0.2,1.1c0.1,0.4,0.1,0.8,0.2,0.9h43.3c0.6,0,1.2,0.2,1.6,0.7S60,10.9,60,11.5L60,11.5z"/>
</g>
<path class="st2" d="M54.7,30c0-2.5-0.4-5-1.2-7.3l-11,28.6C49.7,47,54.7,39.1,54.7,30L54.7,30z"/>
<path class="st2" d="M22.3,53.6c2.5,0.8,5,1.4,7.7,1.4c2.9,0,5.6-0.6,8.1-1.4l-7.5-19.7L22.3,53.6L22.3,53.6z"/>
<path class="st2" d="M6.4,23c-0.6,2.1-1,4.6-1,7c0,9.3,5,17.2,12.6,21.5L6.4,23L6.4,23L6.4,23z"/>
<path class="st2" d="M19,21.5h-1c-2.3,0-2.1,2.3-2.1,2.3L24,44.3l5.6-13.1l-3.1-7.9c-1.2-2.1-4.3-2.1-4.3-2.1v-0.8h17.2v1.2
	l-1.7,0.2c-2.3,0-1.7,2.1-1.7,2.1l7.5,19.9l2.1-5.6c3.9-8.7,1.5-15.1,1.5-15.1c-3.9-7.9,1-8.9,1-8.9c0.4,0,0.6,0,1,0
	C44.3,8.7,37.5,5.4,30,5.4c-10.2,0-18.9,6.2-22.6,14.9L19,20.1V21.5L19,21.5z"/>
<path class="st2" d="M57.6,30c0,15.3-12.4,27.6-27.6,27.6C14.7,57.8,2.4,45.3,2.4,30S14.7,2.4,30,2.4S57.6,14.7,57.6,30z M30,1
	C14,1,1,14,1,30s13,29,29,29s29-13,29-29S46,1,30,1z"/>
</svg>
